<svg viewBox="0 0 200 200" xmlns="http://www.w3.org/2000/svg">
    <path fill="#5f85cc"
        d="M44.5,-73.5C57.4,-69.7,67.2,-57.1,71.6,-43.4C76,-29.7,74.8,-14.8,75.9,0.6C77,16.1,80.3,32.2,72.8,40.5C65.4,48.9,47.2,49.5,33.2,49.9C19.3,50.2,9.6,50.4,-1.6,53.1C-12.8,55.9,-25.6,61.2,-33.5,57.4C-41.4,53.5,-44.3,40.4,-53.7,29.3C-63.2,18.2,-79.1,9.1,-84.7,-3.2C-90.3,-15.5,-85.5,-31.1,-74,-38.7C-62.6,-46.2,-44.4,-45.8,-31,-49.2C-17.5,-52.6,-8.7,-59.8,3.5,-66C15.8,-72.1,31.7,-77.2,44.5,-73.5Z"
        transform="translate(100 100)" />
</svg>